<svg width="17" height="16" viewBox="0 0 17 16" fill="none" xmlns="http://www.w3.org/2000/svg"><path d="M10 9.42941L13 13L16 9.42941M13 3L13 12.9" stroke="black" stroke-miterlimit="10" stroke-linecap="round" stroke-linejoin="round"></path><path d="M6.52273 8.23762L6.06818 7.08345H2.36364L1.90909 8.26025C1.75 8.71287 1.59091 9.0297 1.47727 9.18812C1.36364 9.34653 1.15909 9.41443 0.886364 9.41443C0.659091 9.41443 0.454545 9.34653 0.272727 9.16549C0.0909091 9.00707 0 8.80339 0 8.59972C0 8.46393 0.0227273 8.35078 0.0681818 8.21499C0.113636 8.07921 0.181818 7.89816 0.272727 7.64922L2.61364 1.74257C2.68182 1.56153 2.75 1.35785 2.84091 1.13154C2.93182 0.882602 3.04545 0.678925 3.15909 0.520509C3.25 0.362093 3.38636 0.248939 3.56818 0.135785C3.75 0.0452617 3.95455 0 4.20455 0C4.47727 0 4.68182 0.0452617 4.86364 0.135785C5.02273 0.248939 5.15909 0.362093 5.27273 0.520509C5.38636 0.678925 5.47727 0.837341 5.54545 1.01839C5.61364 1.19943 5.70455 1.42574 5.81818 1.71994L8.20455 7.60396C8.40909 8.05658 8.5 8.37341 8.5 8.57709C8.5 8.78076 8.40909 8.98444 8.22727 9.16549C8.04545 9.34653 7.84091 9.41443 7.59091 9.41443C7.43182 9.41443 7.31818 9.3918 7.20455 9.34653C7.11364 9.30127 7.02273 9.23338 6.95455 9.14286C6.88636 9.05233 6.79545 8.91655 6.72727 8.7355C6.63636 8.53182 6.56818 8.37341 6.52273 8.23762ZM2.84091 5.70297H5.56818L4.20455 1.94625L2.84091 5.70297Z" fill="black"></path><path d="M2.34089 14.7779L5.02271 11.587H2.72726C2.56817 11.587 2.4318 11.5417 2.36362 11.4738C2.27271 11.406 2.22726 11.3154 2.22726 11.1796C2.22726 11.0665 2.27271 10.976 2.36362 10.9081C2.4318 10.8176 2.56817 10.7949 2.72726 10.7949H5.70453C6.09089 10.7949 6.27271 10.976 6.27271 11.3154C6.27271 11.4965 6.24998 11.6323 6.1818 11.7228C6.11362 11.8359 5.97726 11.9944 5.79544 12.2207L3.27271 15.2079H6.04544C6.20453 15.2079 6.34089 15.2306 6.40907 15.2985C6.49998 15.3664 6.54544 15.4569 6.54544 15.5927C6.54544 15.7058 6.49998 15.819 6.40907 15.8869C6.34089 15.9548 6.20453 16 6.04544 16H2.65907C2.4318 16 2.24998 15.9321 2.13635 15.8416C2.02271 15.7284 1.95453 15.5927 1.95453 15.4116C1.95453 15.3663 1.97726 15.2985 1.97726 15.2532C1.99998 15.2079 2.02271 15.1627 2.06817 15.1174C2.09089 15.0721 2.13635 15.0269 2.20453 14.959C2.24998 14.8911 2.29544 14.8232 2.34089 14.7779Z" fill="black"></path></svg>