<svg width="10" height="7" viewBox="0 0 10 7" fill="none" xmlns="http://www.w3.org/2000/svg"><path d="M5.35641 6.34124L9.83219 1.5539C9.93354 1.44118 9.99305 1.29228 9.99943 1.1354C10.0058 0.978527 9.95862 0.824576 9.86681 0.702714C9.82226 0.643108 9.76654 0.594319 9.70331 0.559539C9.64007 0.524759 9.57074 0.504772 9.49985 0.500886C9.42896 0.496999 9.35811 0.509301 9.29193 0.536986C9.22575 0.564672 9.16573 0.607116 9.11581 0.661543L5.00133 5.06589L0.883286 0.661544C0.834017 0.607134 0.774579 0.564652 0.708921 0.536919C0.643263 0.509186 0.572886 0.496836 0.502462 0.50069C0.431239 0.504669 0.361579 0.524703 0.297975 0.5595C0.234369 0.594296 0.178231 0.643083 0.133179 0.702715C0.0465537 0.816583 -0.000534924 0.959474 2.39568e-05 1.10677C-0.00069033 1.18963 0.0138504 1.27182 0.042803 1.34857C0.0717546 1.42532 0.114542 1.49512 0.168687 1.5539L4.64358 6.34124C4.73825 6.44291 4.8664 6.5 4.99999 6.5C5.13359 6.5 5.26174 6.44291 5.35641 6.34124Z" fill="#1F1F1F"></path><defs><clipPath id="clip0"><path fill="#fff" d="M0 0H8V15H0z" transform="rotate(-90 4 4)"></path></clipPath></defs></svg>