<svg width="17" height="16" viewBox="0 0 17 16" fill="none" xmlns="http://www.w3.org/2000/svg"><path d="M16 6.57059L13 3L10 6.57059M13 13L13 3.1" stroke="black" stroke-miterlimit="10" stroke-linecap="round" stroke-linejoin="round"></path><path d="M5.15508 4.42313L4.91978 3.81382H3.03743L2.82353 4.4457C2.73796 4.69393 2.6524 4.8519 2.58823 4.94217C2.52406 5.03244 2.4385 5.05501 2.28877 5.05501C2.18182 5.05501 2.07486 5.00987 1.96791 4.91961C1.88235 4.82934 1.83957 4.73907 1.83957 4.62623C1.83957 4.55853 1.86096 4.49083 1.88235 4.40056C1.90374 4.33286 1.92513 4.2426 1.96791 4.10719L3.16577 0.925247C3.20855 0.834979 3.25133 0.722144 3.29411 0.609309C3.3369 0.473907 3.37968 0.361072 3.44385 0.293371C3.48663 0.203103 3.57219 0.135402 3.65775 0.067701C3.74331 0.022567 3.85026 0 3.97861 0C4.10695 0 4.2139 0.022567 4.29946 0.067701C4.38502 0.135402 4.47058 0.203103 4.51337 0.270804C4.57754 0.361072 4.62032 0.45134 4.6631 0.541608C4.68449 0.631876 4.72727 0.767278 4.79144 0.925247L6.01069 4.08463C6.09625 4.33286 6.16042 4.49083 6.16042 4.60367C6.16042 4.7165 6.09625 4.82934 6.01069 4.91961C5.92513 5.00987 5.81818 5.05501 5.68984 5.05501C5.62567 5.05501 5.56149 5.05501 5.49732 5.03244C5.45454 4.98731 5.41176 4.96474 5.36898 4.91961C5.3262 4.8519 5.28342 4.7842 5.26203 4.69393C5.21925 4.5811 5.17647 4.5134 5.15508 4.42313ZM3.27272 3.06911H4.6631L3.97861 1.03808L3.27272 3.06911Z" fill="black"></path><path d="M0.684492 13.7433L5.36898 7.83075H1.34759C1.04813 7.83075 0.834225 7.76305 0.705882 7.65021C0.55615 7.51481 0.491979 7.33427 0.491979 7.13117C0.491979 6.9055 0.55615 6.72496 0.705882 6.56699C0.834225 6.43159 1.04813 6.36389 1.34759 6.36389H6.52406C7.20856 6.36389 7.52941 6.7024 7.52941 7.35684C7.52941 7.67278 7.48663 7.92101 7.37968 8.12412C7.25134 8.30465 7.03743 8.62059 6.69519 9.0268L2.31016 14.5331H7.14438C7.42246 14.5331 7.63636 14.6008 7.7861 14.7137C7.91444 14.8491 8 15.0296 8 15.2327C8 15.481 7.91444 15.6615 7.7861 15.7969C7.63636 15.9323 7.42246 16 7.14438 16H1.21925C0.812834 16 0.513369 15.9097 0.299465 15.7066C0.106952 15.5261 0 15.2779 0 14.9393C0 14.8265 0.0213904 14.7362 0.0427807 14.646C0.0855615 14.5557 0.128342 14.4654 0.192513 14.3977C0.235294 14.3075 0.320856 14.1946 0.406417 14.0818C0.513369 13.9464 0.59893 13.8336 0.684492 13.7433Z" fill="black"></path></svg>