<svg id="Layer_1" data-name="Layer 1" xmlns="http://www.w3.org/2000/svg" width="150" height="70" viewBox="0 0 100 22.953"><path d="M32.16,28.78c1.45-4.5-3.17-4.21-4.37-4.53.13-.34,1.1-.5,2-.95,2.94-1.49,7.62-7.22,3.02-8.81-1.62-.56-6.15-.16-9.83.24L.29,16.68l-.25.01v.01H0l.02.33,22.49-1.99a9.1,9.1,0,0,1,1.73-.01c-.56,2.43-8.31,15.09-10,18.32-.43.61-1.89,2.65-2.12,3.12.74-.02,1.36-.89,2.52-1.33,1.05-.39,4.94,2.22,11.27-.32,2.7-1.17,5.31-3.11,6.25-6.04ZM20.95,35.47c-1.62.17-3.76-.2-4.28-1.44-.38-.89,1.14-3.15,1.59-4a41.231,41.231,0,0,1,2.08-3.81c.35-.99,3.26-6.06,3.98-7.31,1.25-2.16,1.92-3.99,3.84-4.23,6.44-.81,4.36,4.83,2.29,6.97-3.88,3.99-5.73,1.89-7.2,2.84-.31,2.31,7.86-2.75,6.94,3.26-.66,4.32-5.65,7.35-9.24,7.72Zm48.11-4.2c.12-1.15,1.81-4.29,2.47-5.56.26-.5.5-.97.62-1.16L100,20.2v-.26L72.4,24.19a28.975,28.975,0,0,1,1.93-3.01,11.712,11.712,0,0,1,2.22-2.27c-.88.3-1.39.55-1.97.71-1.02.37-2.79,3.93-3.39,4.74l-7.98,1.19-.27.5L71,24.78c-.71,1.4-3.58,5.98-3.51,7.42.08,1.62,2.62.96,3.62.61a17.777,17.777,0,0,0,2.76-1.38l.02-.14c-1.22.66-5.12,2.69-4.83-.02Z" transform="translate(0 -13.517)" style="fill: #898989;fill-rule: evenodd"></path><path d="M65.67,28a1.973,1.973,0,0,1,2.25.1l.27-.88a2.268,2.268,0,0,0-2.37.57c-.14.11-.28.24-.42.36l-.01.01c-1.06.99-2.07,2.39-2.89,3.19-.81.77-3.83,3.49-4.86,2.39-.81-.99,1.84-5.53,2.41-6.49.37-.04.61-.03,1.29-.09.03,0,.05-.07.08-.09l-1.25.01.42-.47a1.889,1.889,0,0,0,.28-.5c-1.48.36-1.5.81-1.64.89a.917.917,0,0,1-.23.09c-2.4.62-3.15.81-5.15,2.91-.48.5-.85,1.04-1.36,1.51a13.731,13.731,0,0,1-3.28,2.27c-5.8,2.25.04-6.79.18-6.94a1.94,1.94,0,0,1,.76-.5l2.2-1.49a19.438,19.438,0,0,0,2.03-1.7c.86-.97,1.69-1.66,2.5-2.71.25-.32.37-.5.62-.83,5.56-7.13,1.3-8-3.14-2.62a21.262,21.262,0,0,0-1.69,2.41c-1.59,2.99-4.04,6.84-5.83,9.95-1.08,1.87-.97,2.33-1.61,2.83l-.03.03-.09.07-.03.03-.03.02-.08.06-.09.06-.28.2-.08.06-.09.08-.42.33-.08.07-.09.07-.09.07-.17.13-.05.04-.09.06-.09.06-.06.04-.08.06-.01.01-.08.06-.19.12-.03-.01-.04.03-.06.03-.04.03-.1.06-.05.03-.05.02-.42.19c-5.81,2.25.04-6.78.17-6.94a1.94,1.94,0,0,1,.76-.5l2.21-1.49a19.233,19.233,0,0,0,2.02-1.69c.14-.17.29-.33.44-.48l.12-.12.03-.04.08-.08.08-.08.16-.16.08-.08.04-.04.12-.12.27-.27.08-.08.04-.04.08-.08.04-.04.23-.25.06-.06.04-.05.09-.1.04-.05.08-.09.08-.09.08-.09.15-.19c.25-.33.36-.5.62-.83,5.55-7.14,1.3-8.01-3.14-2.63a19.979,19.979,0,0,0-1.68,2.41c-1.59,2.98-4.04,6.84-5.83,9.95-.12.21-.23.39-.31.57l-.02.02-.11.21-.03.06c-.06.11-.11.23-.16.33l-.03.05-.2.44-.02.05-.02.04-.04.07-.01.03-.04.1-.02.04-.01.02-.01.03-.01.02-.04.07v.01l-.02.03-.01.03-.04.07-.03.05v.01l-.02.03-.01.02-.01.02c-.04.06-.08.12-.12.17l-.03.03-.03.03-.03.03-.01.02-.03.03-.03.03-.03.02-.06.06-.03.02-.01.01-.03.03H38.1l-.03.03-.03.02-.04.02-.04.03-.24.15a15.9,15.9,0,0,1-3.26,1.6c-1.38.44-3.5.88-3-1.26.51-2.16,1.36-1.21,3.08-1.84,3.33-1.2,3.16-3.11,1.01-2.54h-.01a4.153,4.153,0,0,0-.92.31c-.3.13-.53.24-.53.24a10.164,10.164,0,0,0-2.42,1.75c-1.44,1.48-3.5,4.47.21,4.21A9.546,9.546,0,0,0,34.25,35a13.834,13.834,0,0,0,2.11-.88c.6-.3,1.1-.69,1.61-.98l.03-.03.06-.03.05-.03.11-.06c-.4,3.05,2.47,2.27,4.33,1.38l.04-.02.04-.03.16-.08.04-.03.06-.03.04-.03.04-.02.04-.03.04-.03.09-.06.04-.03.04-.02.09-.06.04-.03.05-.04.04-.02.12-.1.05-.03.06-.05.07-.05.06-.04.11-.09.04-.03h.01l.06-.06.09-.08.08-.06.25-.2.04-.03.12-.09.04-.03.12-.09.06-.04.11-.09.05-.03.03-.03c.08-.04.17-.06.26-.1-.4,3.05,2.48,2.27,4.33,1.38a21.648,21.648,0,0,0,2.47-1.76l-.01.02.43-.33c-.25,1.15-1.34,3.64,1.4,2.1a6.469,6.469,0,0,0,2.16-1.69,9.289,9.289,0,0,1,.94-1.04c-1.89,4.78,1.2,3.52,4.1,1.74,2.52,2.41,7.19-.27,5.49-2.56-.34-.5-1.84-1.56-.91-2.35ZM55.92,16.58c5.44-7.49,3.87,3.62-6.19,9.68a110.207,110.207,0,0,1,6.19-9.68Zm-7.08.51c5.44-7.49,3.87,3.62-6.19,9.69A110.368,110.368,0,0,1,48.84,17.09ZM33.59,30.29c.3-.25.49-.39.62-.49a2.6,2.6,0,0,1,1.39-.54c.69.06.22,1.01-.05,1.29a3.676,3.676,0,0,1-2.92,1.01c-.02,0-.08.01-.09-.03s-.06-.02-.09-.03a6.226,6.226,0,0,1,1.14-1.21Zm19.84,3.29c-.24-1.76,1.86-4.14,3.09-5.23l.06-.06a4.226,4.226,0,0,1,2.44-.99C58.64,28.68,55.03,33.85,53.43,33.58Zm12.09-.5c-.43.33-2.75,1.12-3.61-.83l2.78-3.06C64.78,30.45,67.04,31.92,65.52,33.08Z" transform="translate(0 -13.517)" style="fill: #898989;fill-rule: evenodd"></path></svg>