<svg id="uuid-fc63e47f-2115-40ee-945a-f704c23d97cc" xmlns="http://www.w3.org/2000/svg" viewBox="0 0 100 50"><path d="M41.16,27.62h4.39c-.27,.68-.7,1.23-1.3,1.67-.88,.66-1.91,.98-3.14,.98-1.68,0-3.04-.53-4.15-1.61-1.11-1.08-1.64-2.3-1.64-3.74,0-.92,.24-1.75,.73-2.54,.5-.8,1.17-1.42,2.06-1.89,1.78-.95,3.61-.88,5.3-.14,.87,.38,1.7,.94,2.45,1.66l.56,.53,2.52-2.38-.63-.57c-1.13-1.03-2.32-1.82-3.52-2.33-1.22-.52-2.55-.78-3.95-.78-2.61,0-4.79,.85-6.46,2.52-1.67,1.67-2.51,3.67-2.51,5.95s.84,4.29,2.51,5.99c1.67,1.7,3.92,2.56,6.69,2.56,2.43,0,4.44-.75,5.95-2.22,1.51-1.47,2.3-3.53,2.35-6.12v-.81s-8.21,0-8.21,0v3.26Z"></path><polygon points="54.97 16.85 51.59 16.85 51.59 33.15 60.59 33.15 60.59 29.89 54.97 29.89 54.97 16.85"></polygon><path d="M74.15,17.61c-1.34-.74-2.82-1.12-4.4-1.12s-2.96,.38-4.28,1.13c-1.32,.75-2.38,1.8-3.14,3.12-.76,1.31-1.14,2.76-1.14,4.29s.39,2.97,1.15,4.27c.76,1.31,1.83,2.34,3.17,3.09,1.34,.74,2.8,1.12,4.35,1.12s3.01-.38,4.34-1.13c1.33-.75,2.39-1.8,3.15-3.11,.76-1.31,1.15-2.75,1.15-4.28s-.39-2.98-1.16-4.29c-.77-1.31-1.84-2.35-3.18-3.1Zm.92,7.43c0,1.51-.5,2.72-1.52,3.71-1.03,1-2.25,1.48-3.74,1.48s-2.63-.5-3.66-1.51-1.53-2.23-1.53-3.71,.49-2.7,1.49-3.73c1-1.02,2.21-1.51,3.71-1.51s2.68,.5,3.72,1.52c1.04,1.02,1.54,2.25,1.54,3.76Z"></path><polygon points="96.44 16.85 94 25.53 90.65 16.85 89.05 16.85 85.66 25.51 83.28 16.85 79.79 16.85 84.43 33.51 86.08 33.51 89.84 23.94 93.53 33.51 95.2 33.51 99.93 16.85 96.44 16.85"></polygon><path d="M.07,32.93v-15.86H5.91c1.1,0,2.03,.1,2.8,.3,.77,.2,1.4,.49,1.88,.86,.49,.37,.84,.82,1.06,1.35,.22,.53,.33,1.12,.33,1.77,0,.36-.05,.7-.15,1.03-.1,.33-.26,.64-.48,.93s-.5,.55-.84,.79c-.34,.24-.75,.44-1.23,.61,1.05,.25,1.82,.67,2.32,1.23,.5,.57,.75,1.3,.75,2.19,0,.67-.13,1.3-.39,1.88-.26,.58-.64,1.09-1.15,1.52s-1.13,.77-1.87,1.01c-.74,.24-1.59,.36-2.54,.36H.07Zm3.68-9.19h1.92c.41,0,.77-.03,1.1-.09s.6-.16,.83-.3c.23-.14,.4-.34,.52-.6,.12-.25,.18-.57,.18-.96s-.05-.69-.14-.94c-.09-.25-.24-.45-.44-.6-.2-.15-.44-.26-.75-.33-.3-.07-.66-.1-1.07-.1H3.75v3.92Zm0,2.46v3.95h2.59c.49,0,.88-.06,1.19-.19,.31-.12,.55-.28,.72-.48,.17-.2,.29-.42,.36-.66,.07-.25,.1-.5,.1-.75,0-.29-.04-.55-.11-.78-.08-.23-.21-.43-.39-.59s-.43-.28-.74-.37c-.3-.09-.69-.13-1.15-.13H3.75Z"></path><path d="M14.63,32.93v-15.86h5.84c1.1,0,2.03,.1,2.8,.3,.77,.2,1.4,.49,1.88,.86,.49,.37,.84,.82,1.06,1.35,.22,.53,.33,1.12,.33,1.77,0,.36-.05,.7-.15,1.03-.1,.33-.26,.64-.48,.93s-.5,.55-.84,.79c-.34,.24-.75,.44-1.23,.61,1.05,.25,1.82,.67,2.32,1.23,.5,.57,.75,1.3,.75,2.19,0,.67-.13,1.3-.39,1.88-.26,.58-.64,1.09-1.15,1.52s-1.13,.77-1.87,1.01-1.59,.36-2.54,.36h-6.34Zm3.68-9.19h1.92c.41,0,.77-.03,1.1-.09s.6-.16,.83-.3c.23-.14,.4-.34,.52-.6,.12-.25,.18-.57,.18-.96s-.05-.69-.14-.94c-.09-.25-.24-.45-.44-.6-.2-.15-.45-.26-.75-.33-.3-.07-.66-.1-1.07-.1h-2.16v3.92Zm0,2.46v3.95h2.59c.49,0,.88-.06,1.19-.19,.31-.12,.55-.28,.72-.48,.17-.2,.29-.42,.36-.66,.07-.25,.1-.5,.1-.75,0-.29-.04-.55-.11-.78-.08-.23-.21-.43-.39-.59s-.43-.28-.74-.37c-.3-.09-.69-.13-1.15-.13h-2.57Z"></path></svg>