<svg id="Layer_1" data-name="Layer 1" xmlns="http://www.w3.org/2000/svg" width="150" height="70" viewBox="0 0 99.284 19.284"><path d="M81.3,16.9c-.6-1.6-3-1.5-4.2-.6-1,.7-1.4.4-1.5,0-.3-.7-1.9-1-2.6-.7a1.374,1.374,0,0,1-1.8.1c-.6-.5-1.8.5-3.2,0-2.3-.8-7.7,3.4-7.1,7,.2,1.2,1.8,2.6,2.6,1.7.2-.2-.4-1.6-.1-3.1.2-.7,2.6-5,3.9-4.4.5.5-5.8,13.4-6.4,14.7-.2.4-.9,1.4-.3,1.7a4.034,4.034,0,0,0,1.1,0c2-.1,2,.2,2.6-1,2.3-5.1,4.5-9.6,7-14.4l.4-.8c.2-.3,1.8-.5,1.3.6-1.5,3.2-7,14.2-7.2,14.8-.4,1,1,.6,1.4.6,1.2-.2,2,.1,2.6-1,2.4-5.1,3.4-6.9,5.9-11.5.4-.7,1-1.6,1.5-2.4.6-.8,1.5-.5.8.9-2.3,4.6-4.4,8.6-6.8,13.2-.6,1.2,3.8.8,4.1,0,1.3-3.8,4.1-9.1,5.8-12.9A5.23,5.23,0,0,0,81.3,16.9Z" transform="translate(-0.33 -15.3)" style="fill: #201f1f;fill-rule: evenodd"></path><path d="M13.5,24.8a8.51,8.51,0,0,0,4.9-3.1c1.1-1.5,1.5-3.6,0-4.8-1.7-1.4-3.6-1.6-5.7-1.6-3.5,0-9,2.7-8.8,6.9,0,.7,1,2.2,1.8,2.1.3,0,.8-.1.9-.5,0-.1.1-1,.1-1.3,0-1.7,2.2-4.6,3.5-5.6a4.839,4.839,0,0,1,5.4-.2c1,.7-.2,3.5-.5,4.2-.3.6-1.8,3.3-3.9,3.2.7-1.5,2-4.5,2.3-5.3.4-.9,1-.9,1-1.3,0-1-3.4-.6-3.9.4-2,3.8-3.8,8.2-5.5,12.1-.2.6-.6,1-.4,1.7.2,0,3.5-.6,3.7-.7.1-.2,0-.4.1-.6l1.9-4.3a1.157,1.157,0,0,1,.5-.7c1.1-.4,1.7.4,1.7,1.5a8.734,8.734,0,0,1-3.2,5.9c-1.4.9-3.9,1.3-5.1-.1-2.2-2.4,1.2-5.9,1.1-6.5-.6-.3-3.1,1.2-3.5,1.5C.8,28.8.1,29.6.4,31.3c.8,4.4,9.5,3.9,12.7,1.3C16.6,29.9,16,26.1,13.5,24.8Z" transform="translate(-0.33 -15.3)" style="fill: #201f1f;fill-rule: evenodd"></path><path d="M96.5,27.9c1-.2,3-1.4,3.1-2.5a1.7,1.7,0,0,0-1.4-2.1c-.4-.1-1.2-.5-1.6.1a1.09,1.09,0,0,0-.2,1.1c.3,1.2.2,2.4-1.2,2.5-.3-.7.1-2.8-.2-3.5-.3-.8-.9-.1-1.2,0-1.3.2-2.2-.6-2,1.2.1,1.7.5,2.5.1,2.9-.2.2-.2.1-.9.5a5.91,5.91,0,0,0-.8.5,7.435,7.435,0,0,0-2,2.6,1.421,1.421,0,0,0-.2.6c-.4.1-.8.3-1.1.2-.9-.1-.3-.8,0-1.5.9-2,2.6-5.1,3.4-7.4.2-.7-1.6.3-1.8.4-1,.2-1.3.1-2.9-.4-1.5-.5-3.1.8-4.2,1.5-2.3,1.6-5.2,7.9-1.2,8.9a2.363,2.363,0,0,0,2.4-1c.7-.8,1,.4,1.2.7.7.8,2.6.2,3.7-.8a1.38,1.38,0,0,1,.4-.3c-.1,1,.8,1.4,2,1.4h0c1.2.1,1.7-.2,1.9-.5.6-.8-.3-2.7.1-3a.494.494,0,0,1,.3-.1,1.007,1.007,0,0,1,.3.1,27.544,27.544,0,0,0,.9,2.9,2.664,2.664,0,0,0,2.7.8c.6-.3,3.4-2.8,3.2-3.5-.1-.3-.6-.2-.8-.2-.3.6-1.3,3-2.4,2C95.8,31.4,95.1,28.1,96.5,27.9ZM82.6,31.6a.671.671,0,0,1-1.3-.2c0-1.3,2.8-7.6,4.5-7.1C86.7,24.6,82.9,30.8,82.6,31.6Z" transform="translate(-0.33 -15.3)" style="fill: #201f1f;fill-rule: evenodd"></path><path d="M55.7,23.8c0-.3,0-.8-.3-.9a6.491,6.491,0,0,0-2.3.2c-.4.1-1-.1-1.1.2a1.163,1.163,0,0,0,.2,1c1.1,1.5,1.2,4.5.9,6.3a1.617,1.617,0,0,1-1.4,1.6,1.039,1.039,0,0,1-.9-.8,3.526,3.526,0,0,1,1.5-3.3c.4-.3,1-.2.6-.5h0a3.611,3.611,0,0,0-1.8-.3c-1.3.2-2.3,1.3-3.1,2.7-.3.5-1.5,2.2-2.2,1.6-.1-.1-.1-.4.3-1.2s.8-1.7,1.2-2.5c1.3-2.6,3.8-9.3,5.4-11.4a1.1,1.1,0,0,0,0-.8c-.1-.2-.6-.1-.8,0a7.68,7.68,0,0,1-3,.7c-.9.1-.4.5-.5,1.3-.2.7-1.4,3-1.7,3.8a12.889,12.889,0,0,1-.6,1.2,7.313,7.313,0,0,0-3.3.3c-4.4,1.7-2.9,4.2-6.9,8-.2.2-1,.6-1.2.5A3.061,3.061,0,0,1,35,30a37.675,37.675,0,0,1,2.8-5.7c.2-.4,1-1.1.9-1.3-.1-.3-1.2-.2-1.3-.1a8.834,8.834,0,0,1-2.8.2c-.2-.1-.1-.3-.4-.4-1.3-.5-4.2,1.1-4.9,1.8a16.91,16.91,0,0,0-3,4.8c-1.3,1.1-3,2.9-4.8,2.9-.9,0-1.9-.2-1.4-1.3.4-.7,4.5-1.8,5.9-3.5.9-1.2,1.8-2.9.4-4.1a3.744,3.744,0,0,0-2.5-.6,7.347,7.347,0,0,0-5.6,3.7,7.522,7.522,0,0,0-1.2,4.8c.4,1.8,3,1.9,4.4,1.8a7.617,7.617,0,0,0,4.7-3c.2,1.7.6,2.7,2,3a3.814,3.814,0,0,0,3.5-1c.3,1.3,2,1.3,3.1.9a15.7,15.7,0,0,0,3.3-2.6c-.2.7-1.2,2.8,1.7,2.8,2.2,0,2.4-.6,2.8-1,.3-.3.3.7.7.9.7.4,2.7,0,3.9-.8.3-.2,1.1-1.2,1.4-.8.2.2.2.6.4.9,1,1.3,3,1.3,4.2.8,2.3-.8,3.5-3.6,3.3-5.9C56.3,25.7,55.8,24.8,55.7,23.8ZM20.5,28.9a9.612,9.612,0,0,1,1.1-2.8c.4-.6,1.2-2.2,1.9-2.6.4-.3,1-.1,1,.3.1,1-2.4,4.3-3.4,5.2C20.9,29.2,20.4,29.4,20.5,28.9ZM30,31.5c-1.8,0,1.8-7.4,3.8-7.9C35.3,23.2,31.3,31.5,30,31.5Zm13.4-3c-.4.7-1.3,3.2-2.2,3.1-2.4-.1,2-7.3,3.7-7.9C46.1,23.3,44.4,26.6,43.4,28.5Z" transform="translate(-0.33 -15.3)" style="fill: #201f1f;fill-rule: evenodd"></path></svg>