<svg id="uuid-e7cd81f5-bc39-449f-8739-a9685a059bef" xmlns="http://www.w3.org/2000/svg" viewBox="0 0 100 50"><path d="M50.78,37.19c-.12,.25-.2,.49-.26,.72-.06,.23-.09,.44-.09,.63,0,.42,.13,.74,.4,.98,.27,.23,.64,.35,1.1,.35,.82,0,1.82-.3,3.01-.91,1.19-.61,2.45-1.46,3.81-2.57,.35-.3,.78-.68,1.29-1.14,.51-.46,.82-.69,.94-.69,.1,0,.18,.03,.23,.09,.05,.06,.08,.15,.1,.26,0,.14-.18,.39-.53,.75-.35,.36-.96,.91-1.84,1.65-1.3,1.11-2.61,1.97-3.91,2.59-1.3,.62-2.44,.93-3.42,.93s-1.69-.29-2.25-.86c-.56-.57-.84-1.35-.84-2.34,0-.89,.28-1.77,.84-2.65,.56-.88,1.37-1.72,2.44-2.51,.94-.68,1.82-1.19,2.64-1.52,.82-.34,1.58-.51,2.29-.51,.63,0,1.07,.1,1.33,.3,.26,.2,.39,.55,.39,1.05,0,1-.74,2.04-2.21,3.13-1.47,1.08-3.3,1.84-5.47,2.29Zm.57-1.17c1.76-.36,3.24-.95,4.44-1.76,1.2-.81,1.8-1.56,1.8-2.27,0-.25-.05-.42-.14-.53-.09-.1-.25-.16-.47-.16-.65,0-1.45,.4-2.4,1.2-.95,.8-2.03,1.97-3.22,3.51Z"></path><path d="M60.12,39.29c.08,.26,.25,.46,.52,.59,.27,.13,.64,.2,1.12,.2,1.29,0,2.29-.69,3.01-2.08,.72-1.39,1.13-3.46,1.25-6.22-1.24,.69-2.39,1.49-3.46,2.39-1.07,.91-1.66,1.36-1.78,1.36-.09,0-.17-.03-.22-.08-.06-.05-.09-.12-.09-.2,0-.27,.53-.83,1.6-1.68,1.07-.85,2.46-1.8,4.16-2.85,.09-.76,.31-1.36,.64-1.83,.34-.46,.72-.69,1.15-.69,.21,0,.37,.07,.5,.21,.12,.14,.19,.32,.19,.56,0,.38-.14,.76-.43,1.13-.29,.38-.68,.69-1.17,.94,.27,.42,.48,.89,.61,1.43,.13,.53,.2,1.13,.2,1.78,0,1.07-.17,2.01-.51,2.81-.34,.81-.83,1.46-1.48,1.95,1.67-.66,3.21-1.58,4.63-2.74,1.42-1.16,2.14-1.74,2.17-1.74,.09,0,.17,.03,.22,.1,.06,.07,.09,.15,.09,.25,0,.2-.28,.56-.85,1.09-.57,.53-1.3,1.1-2.2,1.7-1.43,1.02-2.86,1.8-4.27,2.34-1.41,.55-2.68,.82-3.8,.82-.83,0-1.51-.19-2.03-.57-.52-.38-.78-.87-.78-1.47,0-.48,.15-.88,.45-1.18,.3-.31,.67-.46,1.11-.46,.33,0,.59,.1,.79,.29,.2,.2,.3,.44,.3,.74,0,.35-.12,.63-.35,.82-.23,.2-.55,.29-.94,.29-.1,0-.18,0-.23,0-.05,0-.09,0-.12,0Z"></path><path d="M76.28,32.58c-.81,.61-1.68,1.32-2.63,2.12-.94,.8-1.49,1.2-1.65,1.2-.07,0-.12-.03-.17-.1-.05-.07-.07-.15-.07-.25,0-.3,1.59-1.66,4.77-4.08l1.54-1.19,1.72-1.9h-3.44l.64-.68h3.48l3.63-4.55c.14-.17,.3-.29,.46-.37,.16-.08,.36-.12,.6-.12,.43,0,.77,.06,1.04,.18,.26,.12,.39,.26,.39,.43,0,.09-.01,.18-.04,.25-.03,.08-.08,.17-.16,.27l-3.36,3.91h3.97l-.64,.68h-3.83l-4.57,5.26c-1.07,1.22-1.86,2.26-2.36,3.12-.51,.85-.76,1.56-.76,2.12,0,.3,.06,.52,.17,.66,.11,.14,.28,.21,.52,.21,.65,0,1.52-.27,2.6-.82,1.08-.55,2.29-1.33,3.61-2.34,.49-.36,1.02-.8,1.57-1.31,.55-.51,.9-.76,1.03-.76,.09,0,.17,.03,.22,.1,.06,.07,.09,.15,.09,.25,0,.16-.14,.37-.41,.65-.27,.28-.94,.84-1.99,1.67-1.45,1.16-2.79,2.05-4.04,2.67-1.25,.62-2.31,.93-3.18,.93-.6,0-1.07-.16-1.42-.49-.35-.33-.52-.77-.52-1.35,0-.86,.25-1.8,.76-2.81s1.32-2.2,2.44-3.56Z"></path><path d="M88.27,38.52c-.78,.77-1.5,1.34-2.17,1.73-.66,.38-1.26,.58-1.78,.58-.55,0-.97-.2-1.27-.61-.3-.4-.45-.98-.45-1.72,0-.87,.21-1.71,.63-2.5,.42-.79,1.06-1.57,1.93-2.32,1.12-1,2.32-1.8,3.61-2.39,1.29-.59,2.43-.89,3.42-.89,.56,0,.97,.1,1.23,.31,.26,.21,.41,.55,.45,1.04,.18-.21,.39-.41,.64-.62,.24-.2,.51-.39,.81-.58,.1,0,.25,0,.45-.02,.2-.01,.34-.02,.43-.02,.46,0,.78,.04,.98,.11,.2,.07,.29,.19,.29,.36,0,.16-.3,.5-.9,1.04-.33,.29-.59,.51-.78,.68-1.75,1.65-3.11,3.06-4.1,4.23-.99,1.17-1.48,1.96-1.48,2.37,0,.17,.04,.29,.11,.35,.07,.07,.21,.1,.4,.1,.57,0,1.42-.28,2.54-.83,1.12-.55,2.31-1.31,3.56-2.26,.52-.39,1.08-.85,1.68-1.37,.6-.52,.96-.78,1.07-.78,.09,0,.17,.03,.22,.1,.06,.07,.09,.15,.09,.25,0,.23-.73,.94-2.19,2.13l-.1,.08c-1.45,1.16-2.83,2.07-4.15,2.73-1.32,.66-2.4,.99-3.23,.99-.6,0-1.08-.17-1.44-.5-.36-.33-.54-.78-.54-1.34,0-.12,0-.21,0-.26,0-.06,.02-.11,.03-.17Zm-.16-.82l4.49-4.79c.17-.18,.3-.36,.4-.55,.1-.18,.15-.35,.15-.51,0-.13-.05-.23-.14-.31s-.21-.12-.37-.12c-.44,0-1.03,.19-1.75,.56s-1.46,.88-2.22,1.51c-1.24,1.03-2.26,2.1-3.07,3.22-.81,1.12-1.21,1.94-1.21,2.46,0,.18,.06,.33,.17,.44,.11,.11,.25,.17,.42,.17,.35,0,.81-.19,1.38-.56,.57-.37,1.15-.88,1.75-1.53Z"></path><path d="M34.83,13.2c-2.24,1.84-5.15,5.36-8.72,10.56-1.19,1.72-2.1,3.02-2.72,3.9-3.04,4.23-6.01,7.42-8.9,9.57-2.89,2.14-5.67,3.22-8.32,3.22-1.76,0-3.2-.47-4.34-1.4-1.13-.93-1.7-2.11-1.7-3.52,0-.84,.24-1.53,.72-2.06,.48-.53,1.09-.8,1.84-.8,.57,0,1.02,.17,1.36,.5,.34,.33,.51,.76,.51,1.29s-.17,.92-.5,1.21c-.33,.3-.79,.45-1.37,.45-.1,0-.26-.02-.49-.06-.23-.04-.4-.06-.53-.06-.08,.01-.14,.05-.17,.1-.03,.06-.04,.15-.04,.29,0,.69,.42,1.36,1.27,2,.84,.64,1.78,.96,2.82,.96,1.84,0,4.02-1.08,6.53-3.24,2.51-2.16,5.86-5.87,10.03-11.12l.15-.19c4.68-5.92,8.6-10.13,11.77-12.62-.86-.71-1.8-1.22-2.82-1.55-1.02-.32-2.21-.49-3.57-.49-2.24,0-4.5,.37-6.79,1.12s-4.55,1.86-6.81,3.34c-2.5,1.63-4.49,3.42-5.96,5.35-1.47,1.94-2.2,3.72-2.2,5.35,0,1.02,.3,1.85,.9,2.47,.6,.62,1.39,.93,2.38,.93,1.62,0,3.53-.77,5.74-2.3,2.21-1.54,4.19-3.53,5.95-5.98,.57-.8,1.03-1.68,1.39-2.65,.36-.96,.63-1.44,.81-1.44,.12,0,.22,.06,.29,.17,.07,.11,.1,.26,.1,.44,0,.73-.33,1.81-.98,3.23-.65,1.42-1.49,2.78-2.51,4.08-1.4,1.74-3.05,3.13-4.95,4.15-1.9,1.02-3.75,1.54-5.55,1.54-1.43,0-2.56-.41-3.4-1.23-.84-.82-1.27-1.93-1.27-3.31,0-1.56,.54-3.2,1.63-4.92,1.09-1.72,2.65-3.4,4.7-5.06,2.52-2.03,5.17-3.58,7.95-4.65,2.78-1.07,5.57-1.6,8.36-1.6,1.59,0,2.99,.19,4.19,.57,1.2,.38,2.3,.97,3.3,1.77,.76-.53,1.42-.93,1.99-1.22,.57-.29,.96-.44,1.18-.44,.17,0,.29,.03,.38,.1,.09,.07,.13,.17,.13,.31,0,.18-.33,.47-.99,.87-.66,.4-1.23,.82-1.73,1.27,.57,.82,.99,1.61,1.26,2.37,.27,.76,.4,1.53,.4,2.3,0,1.33-.36,2.59-1.09,3.78-.73,1.19-1.84,2.34-3.33,3.44,.43,.54,.75,1.1,.95,1.69,.21,.59,.31,1.21,.31,1.88,0,1.43-.4,2.88-1.19,4.37-.8,1.49-1.97,2.96-3.52,4.43-1.43,1.34-2.9,2.37-4.42,3.07s-3.02,1.06-4.5,1.06c-.95,0-1.73-.28-2.33-.83-.6-.55-.9-1.27-.9-2.16s.35-1.89,1.06-2.97c.71-1.08,1.73-2.19,3.07-3.32,1.01-.84,2.03-1.55,3.06-2.12,1.03-.57,1.7-.85,2.02-.85,.15,0,.28,.04,.37,.11,.1,.08,.15,.18,.15,.3,0,.24-.39,.57-1.18,1-.62,.33-1.13,.62-1.54,.87-1.85,1.18-3.32,2.39-4.39,3.64-1.07,1.25-1.61,2.36-1.61,3.33,0,.6,.19,1.06,.58,1.4,.39,.34,.92,.51,1.6,.51,.82,0,1.73-.32,2.74-.98,1.01-.65,2.18-1.67,3.51-3.05,1.83-1.91,3.23-3.68,4.21-5.3,.98-1.63,1.47-2.99,1.47-4.1,0-.3-.03-.57-.1-.81-.07-.24-.17-.44-.31-.62-1.01,.69-1.83,1.18-2.46,1.47-.63,.29-1.19,.44-1.67,.44-.6,0-1.08-.14-1.44-.43-.37-.28-.55-.65-.55-1.11,0-.66,.32-1.2,.97-1.6,.64-.4,1.5-.6,2.56-.6,.33,0,.69,.03,1.07,.08,.38,.06,.8,.14,1.26,.25,1.12-1.18,1.99-2.47,2.6-3.88,.62-1.41,.92-2.79,.92-4.15,0-.4-.05-.77-.16-1.1-.1-.33-.27-.68-.51-1.04Zm-3.61,10.98c-.29-.08-.58-.15-.86-.19-.28-.04-.58-.06-.88-.06-.65,0-1.19,.11-1.62,.34-.43,.23-.64,.51-.64,.84,0,.17,.09,.31,.27,.45,.18,.13,.39,.2,.62,.2,.43,0,.88-.12,1.36-.36,.48-.24,1.06-.65,1.75-1.21Z"></path><path d="M41.02,33.66h5.35l-1.31,1.78h-5.31l1.27-1.78Z"></path></svg>