<svg width="155" height="17" viewBox="0 0 155 17" fill="none" xmlns="http://www.w3.org/2000/svg">
<path d="M11.4369 15.8829V17H0V0H11.0817V1.11714H1.20762V7.82H10.0398V8.91286H1.20762V15.8829H11.4369Z" fill="#1F1F1F"/>
<path d="M15.8398 0H17.0475V15.8829H26.59V17H15.8398V0Z" fill="#1F1F1F"/>
<path d="M29.6914 0H30.899V15.8829H40.4416V17H29.6914V0Z" fill="#1F1F1F"/>
<path d="M54.9798 15.8829V17H43.543V0H54.6246V1.11714H44.7506V7.82H53.5828V8.91286H44.7506V15.8829H54.9798Z" fill="#1F1F1F"/>
<path d="M75.5457 0.752859C76.627 1.25476 77.4597 1.96715 78.0438 2.89001C78.6279 3.81286 78.9199 4.90572 78.9199 6.16858C78.9199 7.41524 78.6279 8.50406 78.0438 9.43501C77.4366 10.3861 76.5669 11.1301 75.5457 11.5721C74.4643 12.066 73.1896 12.3129 71.7215 12.3129H68.3828V17H64.5469V0H71.7215C73.1896 0 74.4643 0.250954 75.5457 0.752859ZM74.1368 8.34214C74.7367 7.83214 75.0366 7.10762 75.0366 6.16858C75.0366 5.21334 74.7367 4.48072 74.1368 3.97072C73.5369 3.46072 72.6608 3.20572 71.5084 3.20572H68.3828V9.10714H71.5084C72.6604 9.10714 73.5365 8.85214 74.1367 8.34214H74.1368Z" fill="#1F1F1F"/>
<path d="M96.8463 0V17H93.0104V10.03H85.4805V17H81.6445V0H85.4805V6.70286H93.0104V0H96.8463Z" fill="#1F1F1F"/>
<path d="M111.692 13.3571H103.996L102.528 17H98.5977L105.985 0H109.774L117.186 17H113.16L111.692 13.3571ZM110.484 10.37L107.856 3.86143L105.228 10.37H110.484Z" fill="#1F1F1F"/>
<path d="M129.475 17L126.278 12.2643H122.75V17H118.914V0H126.089C127.557 0 128.832 0.250954 129.913 0.752859C130.994 1.25476 131.827 1.96715 132.411 2.89001C132.995 3.81286 133.287 4.90572 133.287 6.16858C133.287 7.43143 132.991 8.52025 132.399 9.43501C131.807 10.3498 130.967 11.05 129.877 11.5357L133.595 17H129.475ZM128.504 3.97072C127.904 3.46072 127.028 3.20572 125.876 3.20572H122.75V9.13144H125.876C127.028 9.13144 127.904 8.87239 128.504 8.35429C129.104 7.8362 129.404 7.10762 129.404 6.16858C129.404 5.21358 129.104 4.48096 128.504 3.97072H128.504Z" fill="#1F1F1F"/>
<path d="M151.4 17L151.376 6.8L146.498 15.2029H144.77L139.916 7.01858V17H136.316V0H139.489L145.693 10.5643L151.802 0H154.952L154.999 17H151.4Z" fill="#1F1F1F"/>
</svg>
