<svg width="22" height="24" viewbox="0 0 15 15" fill="none" xmlns="http://www.w3.org/2000/svg"><path fill-rule="evenodd" clip-rule="evenodd" d="M13.6088 14.9999C13.779 14.9996 13.942 14.9319 14.0623 14.8118C14.1825 14.6916 14.25 14.5287 14.25 14.3589V12.835C14.2503 12.3505 14.1548 11.8707 13.9692 11.4231C13.7836 10.9754 13.5113 10.5687 13.1681 10.2261C12.8249 9.88348 12.4173 9.61178 11.9688 9.42649C11.5203 9.24121 11.0396 9.14598 10.5542 9.14624H4.44284C3.95767 9.14637 3.47728 9.2419 3.02911 9.42736C2.58094 9.61282 2.17376 9.88458 1.83084 10.2271C1.48791 10.5697 1.21596 10.9763 1.03051 11.4238C0.845054 11.8712 0.749737 12.3508 0.750001 12.835V14.3589C0.750001 14.5286 0.817554 14.6914 0.9378 14.8114C1.05805 14.9314 1.22113 14.9989 1.39119 14.9989C1.56124 14.9989 1.72433 14.9314 1.84458 14.8114C1.96482 14.6914 2.03238 14.5286 2.03238 14.3589V12.835C2.03264 12.1962 2.287 11.5837 2.73956 11.132C3.19211 10.6803 3.80583 10.4264 4.44584 10.4262H10.5572C10.8742 10.426 11.1882 10.4882 11.4812 10.6092C11.7742 10.7302 12.0404 10.9076 12.2647 11.1313C12.489 11.355 12.667 11.6205 12.7885 11.9129C12.9099 12.2052 12.9725 12.5185 12.9726 12.835V14.3589C12.9726 14.5279 13.0395 14.69 13.1586 14.81C13.2777 14.93 13.4395 14.9983 13.6088 14.9999Z" fill="#1F1F1F"></path><path fill-rule="evenodd" clip-rule="evenodd" d="M7.50444 0C6.77347 0 6.05892 0.216342 5.45114 0.621667C4.84336 1.02699 4.36965 1.6031 4.08992 2.27713C3.81019 2.95116 3.73701 3.69285 3.87961 4.40839C4.02222 5.12394 4.37421 5.78122 4.89108 6.2971C5.40796 6.81298 6.06649 7.1643 6.78341 7.30663C7.50034 7.44896 8.24345 7.37591 8.91878 7.09672C9.5941 6.81753 10.1713 6.34473 10.5774 5.73812C10.9835 5.1315 11.2003 4.41832 11.2003 3.68875C11.1992 2.71076 10.8095 1.77313 10.1166 1.08158C9.42375 0.390034 8.48431 0.00105872 7.50444 0ZM7.50444 6.09959C7.02706 6.09979 6.56034 5.95868 6.16331 5.69412C5.76629 5.42955 5.45679 5.05341 5.27397 4.61327C5.09115 4.17313 5.04321 3.68876 5.13622 3.22143C5.22923 2.75409 5.45901 2.32478 5.7965 1.9878C6.13399 1.65082 6.56403 1.4213 7.03222 1.32827C7.50042 1.23525 7.98574 1.28289 8.4268 1.46518C8.86786 1.64747 9.24485 1.95622 9.51009 2.35237C9.77533 2.74852 9.9169 3.21429 9.9169 3.69075C9.91558 4.32886 9.66095 4.94043 9.20879 5.39154C8.75662 5.84265 8.14377 6.09654 7.50444 6.09759V6.09959Z" fill="#1F1F1F"></path></svg>