<svg width="19" height="24" viewbox="0 0 15 15" fill="none" xmlns="http://www.w3.org/2000/svg"><mask id="mask0_3065_109480" style="mask-type:alpha" maskunits="userSpaceOnUse" x="0" y="0" width="15" height="15"><rect width="15" height="15" fill="#C4C4C4"></rect></mask><path d="M11.4178 2.57196H10.6137L10.5983 2.48297C10.3537 1.06737 9.02196 0 7.50064 0C5.97933 0 4.64751 1.06737 4.40308 2.48297L4.38762 2.57196H3.58287C2.79743 2.57261 2.0442 2.88439 1.48792 3.43913C0.931633 3.99387 0.617558 4.74641 0.614381 5.53219L0.5 10.5815C0.501732 11.7532 0.967848 12.8763 1.79612 13.7046C2.6244 14.5329 3.74722 14.9988 4.91834 15H10.0818C11.2548 14.9983 12.3792 14.5306 13.2077 13.6998C14.0362 12.869 14.501 11.7431 14.5 10.5695L14.3858 5.53907C14.3838 4.75238 14.0704 3.99852 13.5141 3.44246C12.9579 2.8864 12.2041 2.5734 11.4178 2.57196ZM5.68532 2.42833C5.93909 1.72283 6.68558 1.23021 7.50064 1.23021C8.3157 1.23021 9.06209 1.72283 9.31575 2.42833L9.36747 2.57196H5.63339L5.68532 2.42833ZM10.0823 13.7693H4.91887C4.07475 13.7696 3.26497 13.4349 2.66717 12.8387C2.06937 12.2424 1.73237 11.4333 1.7301 10.5888L1.84459 5.53938C1.84567 5.07871 2.02923 4.63726 2.35505 4.31173C2.68088 3.98621 3.12239 3.80316 3.58287 3.8027H11.4172C11.8795 3.80449 12.3221 3.98961 12.6481 4.31744C12.9741 4.64528 13.1569 5.08908 13.1563 5.55152L13.2704 10.5767C13.27 11.4228 12.9341 12.2341 12.3364 12.8326C11.7387 13.4312 10.928 13.768 10.0823 13.7693Z" fill="#1F1F1F"></path><path d="M5.59295 5.57604V5.55598C5.59275 5.39821 5.53001 5.24696 5.41849 5.1354C5.30697 5.02385 5.15577 4.96111 4.99807 4.96094H4.95805C4.80037 4.96114 4.6492 5.0239 4.5377 5.13544C4.42621 5.24699 4.36348 5.39823 4.36328 5.55598V6.01296C4.36328 7.63971 5.77118 8.96322 7.50173 8.96322C9.23228 8.96322 10.64 7.6396 10.64 6.01263V5.55598C10.6398 5.39823 10.577 5.24699 10.4655 5.13544C10.354 5.0239 10.2029 4.96114 10.0452 4.96094H10.0052C9.84747 4.96111 9.69628 5.02385 9.58475 5.1354C9.47323 5.24696 9.41049 5.39821 9.4103 5.55598V6.01296C9.4103 6.96117 8.55414 7.73268 7.50173 7.73268C6.44932 7.73268 5.59306 6.96105 5.59306 6.01263V5.57604H5.59295Z" fill="#1F1F1F"></path></svg>