<svg width="26" height="24" viewbox="0 0 15 15" fill="none" xmlns="http://www.w3.org/2000/svg"><mask id="mask0_3063_109469" style="mask-type:alpha" maskunits="userSpaceOnUse" x="0" y="0" width="15" height="15"><rect width="15" height="15" fill="#C4C4C4"></rect></mask><path d="M13.7484 8.47544L13.7829 8.43365C14.6828 7.31544 15.0973 6.05617 14.9808 4.79289C14.8652 3.63994 14.3377 2.57259 13.501 1.79864C12.6741 1.00591 11.5961 0.549894 10.4676 0.515422C9.40443 0.507527 8.37183 0.881887 7.54736 1.57412L7.48751 1.62422L7.42689 1.57553C6.55083 0.8719 5.55644 0.5 4.55107 0.5C4.5126 0.5 4.47409 0.500533 4.43555 0.501602C3.31805 0.547737 2.25698 1.02017 1.45811 1.8273C0.634707 2.6315 0.122382 3.71658 0.0163128 4.88096C-0.0911418 6.16167 0.333819 7.40682 1.24524 8.48185C1.27157 8.5099 1.46034 8.71309 1.76658 9.04291L2.79876 10.155L6.36935 14.0038C6.51453 14.1605 6.68901 14.2853 6.88225 14.3706C7.07549 14.4559 7.28348 14.4999 7.49368 14.5C7.70387 14.5001 7.91191 14.4563 8.10524 14.3712C8.29856 14.2861 8.47316 14.1615 8.61851 14.005L11.4855 10.9153C12.6481 9.66057 13.6569 8.57333 13.7484 8.47544ZM7.81648 13.2137C7.77429 13.2578 7.72399 13.2928 7.66853 13.3166C7.61307 13.3405 7.55356 13.3527 7.49348 13.3525C7.43339 13.3524 7.37393 13.3399 7.31857 13.3158C7.26322 13.2917 7.21308 13.2565 7.17108 13.2122L2.05737 7.70068C0.512585 5.87403 1.06249 3.80432 2.22642 2.65285C2.88912 1.99631 3.67735 1.64926 4.50589 1.64926C5.41236 1.64926 6.36225 2.07006 7.11191 2.80394C7.21612 2.90763 7.3557 2.96488 7.50051 2.9633C7.64531 2.96173 7.78369 2.90146 7.88576 2.79553C8.60821 2.05413 9.46784 1.66169 10.3715 1.66169C11.2551 1.6744 12.103 2.02373 12.7518 2.64243C13.9524 3.77647 14.4733 5.78065 12.931 7.70197L12.9287 7.70479L12.9263 7.70739L7.81648 13.2137Z" fill="#1F1F1F"></path></svg>