<svg id="Layer_1" data-name="Layer 1" xmlns="http://www.w3.org/2000/svg" width="150" height="70" viewBox="0 0 99.2 33.2"><path d="M15.1,8.4,7.7,25,.4,41.6H3.8l3.6-8.2H22.8l3.6,8.2h3.4L22.4,25ZM8.8,30.2l.6-1.3L15.1,16l5.7,12.8.6,1.3H8.8Z" transform="translate(-0.4 -8.4)" style="fill: #9e7059;fill-rule: evenodd"></path><path d="M53.4,21.5a7.094,7.094,0,0,0-6.1,3.4,4.522,4.522,0,0,0-2-2.5,6.4,6.4,0,0,0-3.6-.9,6.756,6.756,0,0,0-3.5.9,7.556,7.556,0,0,0-2.4,2.3V21.9h-3V41.6h3.3V31.4a13.722,13.722,0,0,1,.5-4.1,4.251,4.251,0,0,1,1.7-2.2,4.845,4.845,0,0,1,2.6-.7,3.043,3.043,0,0,1,2.6,1.1,5.94,5.94,0,0,1,.8,3.3V41.6h3.3V30.2A6.1,6.1,0,0,1,49,25.8a4.762,4.762,0,0,1,3.4-1.4,4.228,4.228,0,0,1,2,.5,2.689,2.689,0,0,1,1.2,1.4,9.73,9.73,0,0,1,.3,2.9V41.6h3.3V28.1c0-2.2-.5-3.9-1.6-5C56.8,22,55.3,21.5,53.4,21.5Z" transform="translate(-0.4 -8.4)" style="fill: #9e7059;fill-rule: evenodd"></path><path d="M84.1,21.5A7.094,7.094,0,0,0,78,24.9a4.522,4.522,0,0,0-2-2.5,6.4,6.4,0,0,0-3.6-.9,6.756,6.756,0,0,0-3.5.9,7.556,7.556,0,0,0-2.4,2.3V21.9h-3V41.6h3.3V31.4a13.722,13.722,0,0,1,.5-4.1A4.251,4.251,0,0,1,69,25.1a4.845,4.845,0,0,1,2.6-.7,3.043,3.043,0,0,1,2.6,1.1,5.94,5.94,0,0,1,.8,3.3V41.6h3.3V30.2a6.1,6.1,0,0,1,1.4-4.4,4.762,4.762,0,0,1,3.4-1.4,4.228,4.228,0,0,1,2,.5,2.689,2.689,0,0,1,1.2,1.4,9.73,9.73,0,0,1,.3,2.9V41.6h3.3V28.1c0-2.2-.5-3.9-1.6-5C87.5,22,86,21.5,84.1,21.5Z" transform="translate(-0.4 -8.4)" style="fill: #9e7059;fill-rule: evenodd"></path><rect x="94.5" y="13.7" width="3.9" height="19.5" style="fill: #9e7059"></rect><circle cx="96.6" cy="4.8" r="2.6" style="fill: #9e7059"></circle></svg>